<svg xmlns="http://www.w3.org/2000/svg" width="1080" height="1080" viewBox="0 0 1080 1080"><defs><style>.cls-1{fill:#74c4d0;}.cls-2{fill:#0093a9;}.cls-3{fill:#fff;}</style></defs><title>Technology-Humidity-sRgb</title><g id="Sujet_Vordergrund" data-name="Sujet Vordergrund"><path class="cls-1" d="M539.93,0C241.72,0,0,241.69,0,539.91s241.75,539.93,540,539.93,539.94-241.74,539.94-539.93S838.13,0,539.93,0Z"/><path class="cls-2" d="M1071.83,446.62c-.27-1.59-.56-3.17-.85-4.75q-3.78-20.62-9.1-40.67-.83-3.13-1.7-6.25-6.11-22-14-43.2-2.3-6.18-4.74-12.29-5.06-12.65-10.74-25-1.28-2.78-2.59-5.55-1.45-3.06-2.94-6.11-5.82-11.88-12.19-23.43c-1.53-2.76-3.06-5.51-4.63-8.24q-5.52-9.58-11.4-18.9c-1.41-2.23-2.84-4.46-4.28-6.67q-1.41-2.16-2.84-4.31-2.88-4.33-5.83-8.61-11.12-16-23.32-31.18c-1.35-1.69-2.72-3.36-4.1-5q-10.3-12.49-21.35-24.36-2.21-2.37-4.44-4.71a543.11,543.11,0,0,0-82-70.42q-4.34-3-8.75-6-11.52-7.71-23.45-14.85-3.12-1.86-6.27-3.69Q806.15,70,802,67.69q-12.33-6.87-25.06-13.09l-5.68-2.74q-7.89-3.73-15.92-7.24c-2.9-1.27-5.83-2.51-8.76-3.72q-3.07-1.27-6.16-2.51T734,35.9A538.51,538.51,0,0,0,539.93,0C241.72,0,0,241.69,0,539.91s241.75,539.93,540,539.93,539.94-241.74,539.94-539.93A543.09,543.09,0,0,0,1071.83,446.62ZM1009.5,738.24A509.9,509.9,0,1,1,539.93,30.31h0V70c-125.52,0-243.51,48.87-332.27,137.63S70,414.38,70,539.91a470.11,470.11,0,0,0,28.1,160.78L168.83,675A393,393,0,0,1,145,539.91C145,322.15,322.18,145,539.93,145v42.25c-194.76,0-352.65,157.88-352.65,352.65S345.17,892.52,539.93,892.52,892.55,734.66,892.55,539.91h157A506.34,506.34,0,0,1,1009.5,738.24Z"/><path class="cls-3" d="M340.75,593.44c0,105.72,85.72,191.47,191.46,191.47s191.48-85.75,191.48-191.47S532.21,255.83,532.21,255.83,340.75,487.7,340.75,593.44Z"/><polygon class="cls-3" points="836.27 128.4 704.13 365.48 733.1 365.48 864.89 128.4 836.27 128.4"/><path class="cls-3" d="M701.66,269.73c33.21,0,63.58-25.44,63.58-73.5C765.24,157,743,128,703.77,128c-39.58,0-64.65,31.1-64.65,72.08C639.12,243.58,666.68,269.73,701.66,269.73ZM679,199.06c0-23.32,7.07-41.69,23-41.69,17,0,23.33,18,23.33,41.34,0,26.15-7.43,41.69-22.62,41.69C687.15,240.4,678.68,223.08,679,199.06Z"/><path class="cls-3" d="M930.59,291.63c0-39.21-22.24-68.19-61.47-68.19s-64.3,31.1-64.3,72.08c0,43.11,27.55,69.26,62.19,69.26C900.22,364.78,930.59,339.34,930.59,291.63Zm-62.53,43.82c-15.2,0-23.65-17.31-23.3-41.35,0-23,7-41.33,23-41.33,16.61,0,22.95,18,22.95,41.33C890.66,319.9,883.25,335.45,868.06,335.45Z"/><path class="cls-3" d="M920.39,437.87h-.73l-1.12-16.65h-24c.54,7.76.73,16.46.73,29.78v60.66h28.11V465.79a33.94,33.94,0,0,1,.55-6.29c1.85-8.69,8.87-14.25,19.25-14.25a41,41,0,0,1,7.57.75V419.54a28.54,28.54,0,0,0-5.92-.55C935.93,419,925,424.55,920.39,437.87Z"/><path class="cls-3" d="M1019.14,419.18a32.09,32.09,0,0,0-14.61,3.52,30.1,30.1,0,0,0-11.09,9.43h-.38V380.34H965V511.66h28.11V458a16,16,0,0,1,.94-6.1c2-5.18,6.65-10,14-10,10.56,0,14.63,8.15,14.63,20v49.76h28.13V458.94C1050.79,431.57,1037.08,419.18,1019.14,419.18Z"/></g></svg>